# xmcd
#
# Track frame offsets:
#	150
#	14026
#	29612
#	46307
#	63870
#	77983
#	95141
#	107584
#	124093
#	141919
#	155913
#	170624
#	189156
#	207150
#	227516
#	243186
#	259183
#	278448
#	295501
#	308678
#
# Disc length: 4271 seconds
#
# Revision: 1
# Processed by: cddbd v1.5.2PL0 Copyright (c) Steve Scherf et al.
# Submitted via: dBpowerAMP V4.0
#
DISCID=1610ad14
DTITLE=Various Artist - CDX 440
DYEAR=2008
DGENRE=Country
TTITLE0=Sarah Johns - He Hates Me
TTITLE1=Jason Michael Carroll - I Can Sleep When I'm Dead
TTITLE2=Phil Stacey - If You Didn't Love Me
TTITLE3=Clay Walker - She Likes It In The Morning
TTITLE4=Trisha Yearwood - This Is Me You're Talking To
TTITLE5=Trace Adkins - You're Gonna Miss This
TTITLE6=Garth Brooks - Workin' For A Livin'
TTITLE7=Rissi Palmer - Hold On To Me
TTITLE8=Jimmie Lee - Cross Country 4 Wheel Drive
TTITLE9=K. Wilder - Day Light's Burning
TTITLE10=Zachary Hunter - It's A Long Road
TTITLE11=Katie Armiger - Make Me Believe
TTITLE12=David Thibodeaux - Not Ready To End The Fight
TTITLE13=Adam Fears - Old Mistake
TTITLE14=Badbob and Jimmy - Redneck Hunter
TTITLE15=Kate Russell - The Man He Could Be
TTITLE16=Eric Hancock - There's Still Hope
TTITLE17=Tony Hobo Parks - When I'm Old And Gray
TTITLE18=Robert Allen Mycko - When I Start Drinkin' (I Get Drunk)
TTITLE19=Faron Young - Are You Hungry Eat Your Import
EXTD=track 15 is Badbob and Jimmy
EXTT0=
EXTT1=
EXTT2=
EXTT3=
EXTT4=
EXTT5=
EXTT6=
EXTT7=
EXTT8=
EXTT9=
EXTT10=
EXTT11=
EXTT12=
EXTT13=
EXTT14=
EXTT15=
EXTT16=
EXTT17=
EXTT18=
EXTT19=
PLAYORDER=
